<svg xmlns="http://www.w3.org/2000/svg" xmlns:xlink="http://www.w3.org/1999/xlink" width="500" zoomAndPan="magnify" viewBox="0 0 375 374.999991" height="500" preserveAspectRatio="xMidYMid meet" version="1.2"><defs><clipPath id="6cbafd006b"><path d="M 187.5 0 C 83.945312 0 0 83.945312 0 187.5 C 0 291.054688 83.945312 375 187.5 375 C 291.054688 375 375 291.054688 375 187.5 C 375 83.945312 291.054688 0 187.5 0 Z M 187.5 0 "/></clipPath><clipPath id="bf7e1f8cf5"><path d="M 39.914062 253 L 227 253 L 227 303.777344 L 39.914062 303.777344 Z M 39.914062 253 "/></clipPath><clipPath id="723ba077a8"><path d="M 166 158 L 335.414062 158 L 335.414062 290 L 166 290 Z M 166 158 "/></clipPath></defs><g id="d5d8b6fe24">
  <g clip-rule="nonzero" clip-path="url(#6cbafd006b)">
    <rect x="0" width="375" y="0" height="374.999991" style="fill:#ff6b00;fill-opacity:1;stroke:none;"/>
  </g><g clip-rule="nonzero" clip-path="url(#bf7e1f8cf5)"><path style=" stroke:none;fill-rule:nonzero;fill:#99c0d6;fill-opacity:1;" d="M 226.800781 278.632812 C 226.800781 279.039062 226.765625 279.449219 226.6875 279.859375 C 226.613281 280.269531 226.5 280.675781 226.351562 281.082031 C 226.203125 281.492188 226.015625 281.898438 225.789062 282.300781 C 225.566406 282.707031 225.304688 283.109375 225.003906 283.511719 C 224.707031 283.914062 224.371094 284.3125 224 284.710938 C 223.628906 285.109375 223.222656 285.503906 222.777344 285.894531 C 222.332031 286.285156 221.855469 286.675781 221.339844 287.058594 C 220.824219 287.445312 220.273438 287.828125 219.6875 288.207031 C 219.101562 288.582031 218.484375 288.957031 217.828125 289.328125 C 217.175781 289.699219 216.488281 290.0625 215.769531 290.425781 C 215.046875 290.785156 214.292969 291.140625 213.507812 291.492188 C 212.722656 291.84375 211.902344 292.191406 211.054688 292.53125 C 210.203125 292.871094 209.324219 293.207031 208.414062 293.535156 C 207.5 293.863281 206.5625 294.1875 205.589844 294.503906 C 204.621094 294.820312 203.621094 295.128906 202.59375 295.433594 C 201.566406 295.734375 200.511719 296.03125 199.433594 296.320312 C 198.351562 296.613281 197.242188 296.894531 196.109375 297.167969 C 194.976562 297.445312 193.820312 297.710938 192.636719 297.972656 C 191.457031 298.230469 190.25 298.484375 189.023438 298.726562 C 187.792969 298.96875 186.542969 299.207031 185.273438 299.433594 C 184 299.660156 182.707031 299.878906 181.398438 300.089844 C 180.085938 300.300781 178.753906 300.503906 177.40625 300.695312 C 176.058594 300.890625 174.691406 301.074219 173.308594 301.246094 C 171.925781 301.421875 170.53125 301.589844 169.117188 301.746094 C 167.703125 301.902344 166.277344 302.050781 164.835938 302.1875 C 163.398438 302.324219 161.945312 302.453125 160.484375 302.574219 C 159.019531 302.691406 157.546875 302.800781 156.0625 302.898438 C 154.578125 303 153.085938 303.089844 151.585938 303.167969 C 150.085938 303.25 148.582031 303.320312 147.070312 303.378906 C 145.554688 303.4375 144.039062 303.488281 142.515625 303.53125 C 140.996094 303.570312 139.46875 303.601562 137.941406 303.621094 C 136.414062 303.640625 134.886719 303.648438 133.359375 303.648438 C 131.828125 303.648438 130.300781 303.640625 128.773438 303.621094 C 127.246094 303.601562 125.71875 303.570312 124.199219 303.53125 C 122.675781 303.488281 121.160156 303.4375 119.644531 303.378906 C 118.132812 303.320312 116.628906 303.25 115.128906 303.167969 C 113.628906 303.089844 112.136719 303 110.652344 302.898438 C 109.167969 302.800781 107.695312 302.691406 106.230469 302.574219 C 104.769531 302.453125 103.316406 302.324219 101.878906 302.1875 C 100.4375 302.050781 99.011719 301.902344 97.597656 301.746094 C 96.183594 301.589844 94.789062 301.421875 93.40625 301.246094 C 92.023438 301.074219 90.65625 300.890625 89.308594 300.695312 C 87.960938 300.503906 86.628906 300.300781 85.316406 300.089844 C 84.007812 299.878906 82.714844 299.660156 81.441406 299.433594 C 80.171875 299.207031 78.921875 298.96875 77.691406 298.726562 C 76.464844 298.484375 75.257812 298.230469 74.078125 297.972656 C 72.894531 297.710938 71.738281 297.445312 70.605469 297.167969 C 69.472656 296.894531 68.363281 296.613281 67.28125 296.320312 C 66.203125 296.03125 65.148438 295.734375 64.121094 295.433594 C 63.09375 295.128906 62.09375 294.820312 61.125 294.503906 C 60.15625 294.1875 59.214844 293.863281 58.304688 293.535156 C 57.390625 293.207031 56.511719 292.871094 55.660156 292.53125 C 54.8125 292.191406 53.996094 291.84375 53.207031 291.492188 C 52.421875 291.140625 51.667969 290.785156 50.949219 290.425781 C 50.226562 290.0625 49.539062 289.699219 48.886719 289.328125 C 48.230469 288.957031 47.613281 288.582031 47.027344 288.207031 C 46.441406 287.828125 45.890625 287.445312 45.375 287.058594 C 44.859375 286.675781 44.382812 286.285156 43.9375 285.894531 C 43.492188 285.5 43.085938 285.105469 42.714844 284.710938 C 42.34375 284.3125 42.007812 283.914062 41.710938 283.511719 C 41.410156 283.109375 41.148438 282.707031 40.925781 282.300781 C 40.699219 281.898438 40.511719 281.492188 40.363281 281.082031 C 40.214844 280.675781 40.101562 280.269531 40.027344 279.859375 C 39.953125 279.449219 39.914062 279.039062 39.914062 278.632812 C 39.914062 278.222656 39.953125 277.8125 40.027344 277.402344 C 40.101562 276.996094 40.214844 276.585938 40.363281 276.179688 C 40.511719 275.769531 40.699219 275.363281 40.925781 274.960938 C 41.148438 274.554688 41.410156 274.152344 41.710938 273.75 C 42.007812 273.347656 42.34375 272.949219 42.714844 272.550781 C 43.085938 272.15625 43.492188 271.761719 43.9375 271.367188 C 44.382812 270.976562 44.859375 270.589844 45.375 270.203125 C 45.890625 269.816406 46.441406 269.433594 47.027344 269.058594 C 47.613281 268.679688 48.230469 268.304688 48.886719 267.933594 C 49.539062 267.5625 50.226562 267.199219 50.949219 266.835938 C 51.667969 266.476562 52.421875 266.121094 53.207031 265.769531 C 53.996094 265.417969 54.8125 265.070312 55.660156 264.730469 C 56.511719 264.390625 57.390625 264.054688 58.304688 263.726562 C 59.214844 263.398438 60.15625 263.074219 61.125 262.757812 C 62.09375 262.441406 63.09375 262.132812 64.121094 261.828125 C 65.148438 261.527344 66.203125 261.230469 67.28125 260.941406 C 68.363281 260.652344 69.472656 260.367188 70.605469 260.09375 C 71.738281 259.820312 72.894531 259.550781 74.078125 259.292969 C 75.257812 259.03125 76.464844 258.78125 77.691406 258.535156 C 78.921875 258.292969 80.171875 258.054688 81.441406 257.828125 C 82.714844 257.601562 84.007812 257.382812 85.316406 257.171875 C 86.628906 256.960938 87.960938 256.757812 89.308594 256.566406 C 90.65625 256.375 92.023438 256.191406 93.40625 256.015625 C 94.789062 255.839844 96.183594 255.671875 97.597656 255.515625 C 99.011719 255.359375 100.4375 255.210938 101.878906 255.074219 C 103.316406 254.9375 104.769531 254.808594 106.230469 254.691406 C 107.695312 254.570312 109.167969 254.460938 110.652344 254.363281 C 112.136719 254.261719 113.628906 254.171875 115.128906 254.09375 C 116.628906 254.011719 118.132812 253.941406 119.644531 253.882812 C 121.160156 253.824219 122.675781 253.773438 124.199219 253.734375 C 125.71875 253.691406 127.246094 253.664062 128.773438 253.644531 C 130.300781 253.621094 131.828125 253.613281 133.359375 253.613281 C 134.886719 253.613281 136.414062 253.621094 137.941406 253.644531 C 139.46875 253.664062 140.996094 253.691406 142.515625 253.734375 C 144.039062 253.773438 145.554688 253.824219 147.070312 253.882812 C 148.582031 253.941406 150.085938 254.011719 151.585938 254.09375 C 153.085938 254.171875 154.578125 254.261719 156.0625 254.363281 C 157.546875 254.460938 159.019531 254.570312 160.484375 254.691406 C 161.945312 254.808594 163.398438 254.9375 164.835938 255.074219 C 166.277344 255.210938 167.703125 255.359375 169.117188 255.515625 C 170.53125 255.671875 171.925781 255.839844 173.308594 256.015625 C 174.691406 256.191406 176.058594 256.375 177.40625 256.566406 C 178.753906 256.757812 180.085938 256.960938 181.398438 257.171875 C 182.707031 257.382812 184 257.601562 185.273438 257.828125 C 186.542969 258.054688 187.792969 258.292969 189.023438 258.535156 C 190.25 258.78125 191.457031 259.03125 192.636719 259.292969 C 193.820312 259.550781 194.976562 259.820312 196.109375 260.09375 C 197.242188 260.367188 198.351562 260.652344 199.433594 260.941406 C 200.511719 261.230469 201.566406 261.527344 202.59375 261.828125 C 203.621094 262.132812 204.621094 262.441406 205.589844 262.757812 C 206.5625 263.074219 207.5 263.398438 208.414062 263.726562 C 209.324219 264.054688 210.203125 264.390625 211.054688 264.730469 C 211.902344 265.070312 212.722656 265.417969 213.507812 265.769531 C 214.292969 266.121094 215.046875 266.476562 215.769531 266.835938 C 216.488281 267.199219 217.175781 267.5625 217.828125 267.933594 C 218.484375 268.304688 219.101562 268.679688 219.6875 269.058594 C 220.273438 269.433594 220.824219 269.816406 221.339844 270.203125 C 221.855469 270.589844 222.332031 270.976562 222.777344 271.367188 C 223.222656 271.761719 223.628906 272.15625 224 272.550781 C 224.371094 272.949219 224.707031 273.347656 225.003906 273.75 C 225.304688 274.152344 225.566406 274.554688 225.789062 274.960938 C 226.015625 275.363281 226.203125 275.769531 226.351562 276.179688 C 226.5 276.585938 226.613281 276.996094 226.6875 277.402344 C 226.765625 277.8125 226.800781 278.222656 226.800781 278.632812 Z M 226.800781 278.632812 "/></g><path style=" stroke:none;fill-rule:nonzero;fill:#2e7ebf;fill-opacity:1;" d="M 213.734375 142.359375 C 204.585938 100.425781 163.511719 71.34375 118.765625 79.089844 C 81.203125 85.589844 51.761719 119.457031 50.726562 157.929688 C 50.089844 181.730469 57.523438 202.449219 73.964844 219.507812 C 92.367188 238.605469 111.132812 257.347656 129.753906 276.234375 C 130.828125 277.324219 131.984375 278.332031 133.265625 279.53125 C 134.273438 278.617188 135.109375 277.921875 135.871094 277.148438 C 154.519531 258.285156 173.351562 239.605469 191.742188 220.496094 C 212.875 198.546875 220.238281 172.179688 213.734375 142.359375 Z M 133.25 218.132812 C 102.511719 218.132812 77.59375 193.214844 77.59375 162.476562 C 77.59375 131.738281 102.511719 106.820312 133.253906 106.820312 C 164 106.820312 188.914062 131.738281 188.914062 162.476562 C 188.914062 193.214844 163.988281 218.132812 133.25 218.132812 Z M 133.25 218.132812 "/><g clip-rule="nonzero" clip-path="url(#723ba077a8)"><path style=" stroke:none;fill-rule:nonzero;fill:#ffffff;fill-opacity:1;" d="M 330.398438 216.890625 C 326.632812 213.007812 323.785156 208.328125 321.871094 203.269531 C 318.382812 194.035156 314.519531 184.0625 312.898438 180.75 C 312.730469 180.414062 312.558594 180.042969 312.371094 179.652344 C 310.703125 176.15625 308.183594 170.871094 303.121094 166.453125 C 297.144531 161.230469 289.132812 158.582031 279.316406 158.582031 L 222.566406 158.582031 C 212.746094 158.582031 204.738281 161.230469 198.757812 166.453125 C 193.699219 170.875 191.179688 176.160156 189.511719 179.65625 C 189.328125 180.050781 189.148438 180.421875 188.984375 180.753906 C 187.363281 184.0625 183.503906 194.03125 180.011719 203.269531 C 178.097656 208.332031 175.246094 213.007812 171.484375 216.894531 C 168.101562 220.390625 166.796875 226.863281 166.796875 238.863281 C 166.796875 264.527344 170.726562 272.878906 183.515625 273.128906 L 183.515625 285.132812 C 183.515625 285.414062 183.542969 285.699219 183.597656 285.976562 C 183.652344 286.257812 183.734375 286.527344 183.84375 286.789062 C 183.953125 287.054688 184.085938 287.304688 184.246094 287.539062 C 184.402344 287.777344 184.582031 287.996094 184.785156 288.195312 C 184.984375 288.398438 185.203125 288.578125 185.441406 288.734375 C 185.675781 288.894531 185.925781 289.027344 186.191406 289.136719 C 186.453125 289.246094 186.722656 289.328125 187.003906 289.382812 C 187.28125 289.4375 187.5625 289.464844 187.847656 289.464844 L 204.675781 289.464844 C 204.960938 289.464844 205.242188 289.4375 205.519531 289.382812 C 205.800781 289.328125 206.070312 289.246094 206.335938 289.136719 C 206.597656 289.027344 206.847656 288.894531 207.082031 288.734375 C 207.320312 288.578125 207.539062 288.398438 207.742188 288.195312 C 207.941406 287.996094 208.121094 287.777344 208.28125 287.539062 C 208.4375 287.304688 208.570312 287.054688 208.679688 286.789062 C 208.789062 286.527344 208.871094 286.257812 208.925781 285.976562 C 208.980469 285.699219 209.011719 285.414062 209.011719 285.132812 L 209.011719 273.128906 L 292.871094 273.128906 L 292.871094 285.128906 C 292.871094 285.414062 292.898438 285.695312 292.957031 285.972656 C 293.011719 286.253906 293.09375 286.523438 293.203125 286.789062 C 293.3125 287.050781 293.445312 287.300781 293.601562 287.535156 C 293.761719 287.773438 293.941406 287.992188 294.140625 288.195312 C 294.34375 288.394531 294.5625 288.574219 294.800781 288.734375 C 295.035156 288.890625 295.285156 289.023438 295.546875 289.132812 C 295.8125 289.242188 296.082031 289.324219 296.363281 289.378906 C 296.640625 289.4375 296.921875 289.464844 297.207031 289.464844 L 314.03125 289.464844 C 314.316406 289.464844 314.601562 289.4375 314.878906 289.378906 C 315.15625 289.324219 315.429688 289.242188 315.691406 289.132812 C 315.957031 289.023438 316.207031 288.890625 316.441406 288.734375 C 316.679688 288.574219 316.898438 288.394531 317.097656 288.195312 C 317.300781 287.992188 317.480469 287.773438 317.636719 287.539062 C 317.796875 287.300781 317.929688 287.050781 318.039062 286.789062 C 318.148438 286.523438 318.230469 286.253906 318.285156 285.972656 C 318.339844 285.695312 318.367188 285.414062 318.367188 285.128906 L 318.367188 273.125 C 331.15625 272.878906 335.085938 264.523438 335.085938 238.859375 C 335.085938 226.859375 333.78125 220.382812 330.398438 216.890625 Z M 200.492188 186.386719 C 200.683594 185.992188 200.875 185.589844 201.082031 185.167969 C 204.007812 179.03125 207.648438 171.394531 222.570312 171.394531 L 279.320312 171.394531 C 294.242188 171.394531 297.878906 179.03125 300.804688 185.167969 C 301.007812 185.589844 301.199219 185.992188 301.394531 186.386719 C 303 189.664062 307.792969 202.195312 311.769531 212.804688 C 310.785156 212.804688 309.765625 212.804688 308.703125 212.804688 C 288.464844 212.804688 250.945312 212.792969 250.945312 212.792969 C 250.945312 212.792969 213.421875 212.804688 193.183594 212.804688 C 192.121094 212.804688 191.101562 212.804688 190.117188 212.804688 C 194.09375 202.195312 198.886719 189.664062 200.492188 186.386719 Z M 199.648438 259.074219 C 198.847656 259.074219 198.050781 258.996094 197.265625 258.839844 C 196.480469 258.683594 195.714844 258.453125 194.972656 258.144531 C 194.234375 257.839844 193.53125 257.460938 192.863281 257.015625 C 192.195312 256.570312 191.578125 256.066406 191.011719 255.496094 C 190.445312 254.929688 189.9375 254.3125 189.492188 253.648438 C 189.046875 252.980469 188.671875 252.277344 188.363281 251.535156 C 188.058594 250.792969 187.824219 250.03125 187.667969 249.242188 C 187.511719 248.457031 187.433594 247.664062 187.433594 246.859375 C 187.433594 246.058594 187.511719 245.265625 187.667969 244.476562 C 187.824219 243.691406 188.058594 242.929688 188.363281 242.1875 C 188.671875 241.445312 189.046875 240.742188 189.492188 240.074219 C 189.9375 239.410156 190.445312 238.792969 191.011719 238.226562 C 191.578125 237.65625 192.195312 237.152344 192.863281 236.707031 C 193.53125 236.261719 194.234375 235.882812 194.976562 235.578125 C 195.714844 235.269531 196.480469 235.039062 197.265625 234.882812 C 198.050781 234.726562 198.847656 234.648438 199.648438 234.648438 C 200.449219 234.648438 201.246094 234.726562 202.03125 234.882812 C 202.816406 235.039062 203.582031 235.269531 204.324219 235.578125 C 205.0625 235.886719 205.765625 236.261719 206.433594 236.707031 C 207.101562 237.152344 207.71875 237.660156 208.285156 238.226562 C 208.851562 238.792969 209.359375 239.410156 209.804688 240.078125 C 210.25 240.742188 210.625 241.449219 210.933594 242.1875 C 211.238281 242.929688 211.46875 243.691406 211.625 244.480469 C 211.785156 245.265625 211.863281 246.058594 211.863281 246.863281 C 211.863281 247.664062 211.78125 248.457031 211.625 249.246094 C 211.46875 250.03125 211.238281 250.796875 210.929688 251.535156 C 210.625 252.277344 210.246094 252.980469 209.800781 253.648438 C 209.355469 254.316406 208.851562 254.933594 208.28125 255.5 C 207.714844 256.066406 207.097656 256.574219 206.429688 257.019531 C 205.765625 257.464844 205.058594 257.839844 204.320312 258.144531 C 203.578125 258.453125 202.8125 258.683594 202.027344 258.839844 C 201.242188 258.996094 200.445312 259.074219 199.644531 259.074219 Z M 271.371094 253.292969 L 230.511719 253.292969 C 230.1875 253.300781 229.871094 253.246094 229.570312 253.128906 C 229.269531 253.007812 229 252.835938 228.769531 252.609375 C 228.535156 252.382812 228.359375 252.121094 228.230469 251.824219 C 228.105469 251.523438 228.042969 251.210938 228.042969 250.886719 C 228.042969 250.5625 228.105469 250.253906 228.230469 249.953125 C 228.359375 249.65625 228.535156 249.390625 228.769531 249.164062 C 229 248.941406 229.269531 248.765625 229.570312 248.648438 C 229.871094 248.53125 230.1875 248.476562 230.511719 248.484375 L 271.367188 248.484375 C 271.691406 248.476562 272.003906 248.53125 272.304688 248.648438 C 272.605469 248.765625 272.875 248.941406 273.105469 249.164062 C 273.339844 249.390625 273.519531 249.65625 273.644531 249.953125 C 273.769531 250.253906 273.832031 250.5625 273.832031 250.886719 C 273.832031 251.210938 273.769531 251.523438 273.644531 251.824219 C 273.519531 252.121094 273.339844 252.382812 273.105469 252.609375 C 272.875 252.835938 272.605469 253.007812 272.304688 253.128906 C 272.003906 253.246094 271.691406 253.300781 271.367188 253.292969 Z M 271.371094 245.238281 L 230.511719 245.238281 C 230.1875 245.246094 229.871094 245.191406 229.570312 245.074219 C 229.269531 244.957031 229 244.785156 228.769531 244.558594 C 228.535156 244.332031 228.359375 244.070312 228.230469 243.769531 C 228.105469 243.472656 228.042969 243.160156 228.042969 242.835938 C 228.042969 242.511719 228.105469 242.199219 228.230469 241.902344 C 228.359375 241.601562 228.535156 241.339844 228.769531 241.113281 C 229 240.886719 229.269531 240.714844 229.570312 240.597656 C 229.871094 240.476562 230.1875 240.421875 230.511719 240.433594 L 271.367188 240.433594 C 271.691406 240.421875 272.003906 240.476562 272.304688 240.597656 C 272.605469 240.714844 272.875 240.886719 273.105469 241.113281 C 273.339844 241.339844 273.519531 241.601562 273.644531 241.902344 C 273.769531 242.199219 273.832031 242.511719 273.832031 242.835938 C 273.832031 243.160156 273.769531 243.472656 273.644531 243.769531 C 273.519531 244.070312 273.339844 244.332031 273.105469 244.558594 C 272.875 244.785156 272.605469 244.957031 272.304688 245.074219 C 272.003906 245.191406 271.691406 245.246094 271.367188 245.238281 Z M 302.238281 259.074219 C 301.433594 259.074219 300.640625 258.996094 299.855469 258.839844 C 299.066406 258.683594 298.304688 258.453125 297.5625 258.144531 C 296.820312 257.839844 296.117188 257.460938 295.453125 257.015625 C 294.785156 256.570312 294.167969 256.066406 293.601562 255.496094 C 293.035156 254.929688 292.527344 254.3125 292.082031 253.648438 C 291.636719 252.980469 291.257812 252.277344 290.953125 251.535156 C 290.644531 250.792969 290.414062 250.03125 290.257812 249.246094 C 290.101562 248.457031 290.023438 247.664062 290.023438 246.863281 C 290.023438 246.058594 290.101562 245.265625 290.257812 244.480469 C 290.414062 243.691406 290.644531 242.929688 290.953125 242.1875 C 291.257812 241.445312 291.636719 240.742188 292.082031 240.074219 C 292.527344 239.410156 293.03125 238.792969 293.601562 238.226562 C 294.167969 237.660156 294.785156 237.152344 295.449219 236.707031 C 296.117188 236.261719 296.820312 235.882812 297.5625 235.578125 C 298.304688 235.269531 299.066406 235.039062 299.855469 234.882812 C 300.640625 234.726562 301.433594 234.648438 302.238281 234.648438 C 303.039062 234.648438 303.832031 234.726562 304.621094 234.882812 C 305.40625 235.039062 306.167969 235.269531 306.910156 235.578125 C 307.652344 235.886719 308.355469 236.261719 309.023438 236.707031 C 309.6875 237.152344 310.304688 237.660156 310.871094 238.226562 C 311.441406 238.792969 311.945312 239.410156 312.390625 240.078125 C 312.835938 240.742188 313.214844 241.449219 313.519531 242.1875 C 313.828125 242.929688 314.058594 243.691406 314.214844 244.480469 C 314.371094 245.265625 314.449219 246.058594 314.449219 246.863281 C 314.449219 247.664062 314.371094 248.457031 314.214844 249.246094 C 314.058594 250.03125 313.828125 250.796875 313.519531 251.535156 C 313.210938 252.277344 312.835938 252.980469 312.390625 253.648438 C 311.945312 254.3125 311.4375 254.929688 310.871094 255.5 C 310.304688 256.066406 309.6875 256.570312 309.019531 257.015625 C 308.355469 257.460938 307.648438 257.839844 306.910156 258.144531 C 306.167969 258.453125 305.40625 258.683594 304.617188 258.839844 C 303.832031 258.996094 303.039062 259.074219 302.234375 259.074219 Z M 302.238281 259.074219 "/></g><path style=" stroke:none;fill-rule:nonzero;fill:#ffffff;fill-opacity:1;" d="M 158.882812 132.230469 C 164.15625 136.878906 166.796875 143.257812 166.796875 151.363281 C 166.796875 159.332031 164.160156 165.605469 158.882812 170.183594 C 153.605469 174.761719 146.351562 177.050781 137.125 177.050781 L 129.785156 177.050781 L 129.785156 199.695312 L 108.820312 199.695312 L 108.820312 125.257812 L 137.128906 125.257812 C 146.355469 125.257812 153.605469 127.582031 158.882812 132.230469 Z M 145.515625 158.859375 C 147.539062 157.078125 148.550781 154.578125 148.550781 151.363281 C 148.550781 148.148438 147.539062 145.648438 145.515625 143.867188 C 143.484375 142.085938 140.691406 141.195312 137.128906 141.195312 L 129.789062 141.195312 L 129.789062 161.53125 L 137.128906 161.53125 C 140.691406 161.53125 143.488281 160.640625 145.515625 158.859375 Z M 145.515625 158.859375 "/></g></svg>